<?xml version="1.0" encoding="utf-8"?>
<svg aria-hidden="true" focusable="false" data-prefix="fas" data-icon="money-bill-wave" class="svg-inline--fa fa-money-bill-wave fa-w-20" role="img" viewBox="249.412 189.677 77.533 71.053" xmlns="http://www.w3.org/2000/svg">
  <circle style="paint-order: fill; fill: rgb(222, 235, 255); fill-rule: evenodd;" cx="286.646" cy="224.26" r="24.24" transform="matrix(1.362248, 0, 0, 1.340385, -102.692818, -75.331032)"/>
  <text style="font-size: 36; font-family: Roboto; white-space: pre;" transform="matrix(0.026552, 0, 0, 0.639763, -261.973328, -5.629234)">.money
{
    width: 35px;
    height: 35px;
    margin-top: -0.25em;
}</text>
  <path d="M 288.131 221.801 L 296.038 224.813 L 296.038 237.1 C 296.038 237.598 295.66 238 295.194 238 L 291.819 238 C 291.353 238 290.975 237.598 290.975 237.1 L 290.975 230.801 L 282.538 230.801 L 282.538 237.1 C 282.538 237.598 282.16 238 281.694 238 L 278.319 238 C 277.853 238 277.475 237.598 277.475 237.1 L 277.475 225.069 C 275.515 224.323 274.1 222.345 274.1 220.001 C 274.1 218.616 275.506 217.75 276.631 218.443 C 277.153 218.764 277.475 219.358 277.475 220.001 C 277.477 220.995 278.231 221.8 279.163 221.801 Z M 301.1 215.502 L 301.1 217.302 C 301.1 219.29 299.589 220.901 297.725 220.901 L 296.038 220.901 L 296.038 222.903 L 289.288 220.332 L 289.288 211.902 C 289.288 211.1 290.196 210.699 290.728 211.266 L 292.166 212.802 L 294.994 212.802 C 295.57 212.802 296.247 213.247 296.504 213.797 L 296.881 214.602 L 300.256 214.602 C 300.722 214.602 301.1 215.005 301.1 215.502 Z M 295.194 215.502 C 295.194 214.809 294.491 214.376 293.928 214.722 C 293.366 215.069 293.366 215.935 293.928 216.281 C 294.056 216.36 294.202 216.402 294.35 216.402 C 294.816 216.402 295.194 215.999 295.194 215.502 Z" style="fill: rgb(0, 101, 252);"/>
</svg>