<?xml version="1.0" encoding="utf-8"?>
<svg aria-hidden="true" focusable="false" data-prefix="fas" data-icon="map-marker-alt" class="svg-inline--fa fa-map-marker-alt fa-w-12" role="img" viewBox="83.303 238.738 60.626 55.595" xmlns="http://www.w3.org/2000/svg" xmlns:bx="https://boxy-svg.com">
  <path style="fill: rgb(242, 242, 242);" d="M 104.818 238.856 H 143.972 V 293.856 H 104.818 A 20.846 20.846 0 0 1 83.972 273.01 V 259.702 A 20.846 20.846 0 0 1 104.818 238.856 Z" bx:shape="rect 83.972 238.856 60 55 20.846 0 0 20.846 1@d1b5c2d5"/>
  <path d="M 116.589 277.842 C 110.536 267.558 109.412 266.503 109.412 262.723 C 109.412 257.545 112.993 253.348 117.412 253.348 C 121.829 253.348 125.412 257.545 125.412 262.723 C 125.412 266.503 124.288 267.558 118.237 277.842 C 117.837 278.517 116.989 278.517 116.589 277.842 Z M 117.412 266.63 C 119.253 266.63 120.745 264.881 120.745 262.723 C 120.745 260.566 119.253 258.816 117.412 258.816 C 115.569 258.816 114.078 260.566 114.078 262.723 C 114.078 264.881 115.569 266.63 117.412 266.63 Z" style=""/>
</svg>