<?xml version="1.0" encoding="utf-8"?>
<svg aria-hidden="true" focusable="false" data-prefix="fas" data-icon="money-bill-wave" class="svg-inline--fa fa-money-bill-wave fa-w-20" role="img" viewBox="249.412 189.677 77.533 71.053" xmlns="http://www.w3.org/2000/svg">
  <circle style="paint-order: fill; fill: rgb(222, 235, 255); fill-rule: evenodd;" cx="286.646" cy="224.26" r="24.24" transform="matrix(1.362248, 0, 0, 1.340385, -102.692818, -75.331032)"/>
  <path d="M 300.332 236.684 C 298.696 237.664 297.058 238.038 295.421 238.038 C 290.225 238.039 285.029 234.28 279.833 234.28 C 278.529 234.28 277.227 234.516 275.925 235.107 C 275.777 235.173 275.631 235.206 275.487 235.206 C 274.761 235.206 274.127 234.403 274.127 233.288 L 274.127 214.168 C 274.127 213.406 274.432 212.684 274.921 212.393 C 276.558 211.412 278.196 211.038 279.833 211.038 C 285.029 211.038 290.225 214.795 295.421 214.795 C 296.725 214.795 298.026 214.559 299.329 213.968 C 299.477 213.902 299.623 213.87 299.767 213.87 C 300.492 213.87 301.127 214.674 301.127 215.788 L 301.127 234.908 C 301.127 235.67 300.822 236.39 300.332 236.684 Z M 276.152 231.998 C 277 231.694 277.887 231.543 278.798 231.459 C 278.549 229.689 277.459 228.353 276.152 228.353 L 276.152 231.998 Z M 276.152 214.821 L 276.152 217.701 C 277.602 217.701 278.775 216.058 278.84 214.002 C 277.889 214.11 277 214.382 276.152 214.821 Z M 287.627 218.752 C 285.763 218.752 284.252 221.343 284.252 224.537 C 284.252 227.733 285.763 230.324 287.627 230.324 C 289.491 230.324 291.002 227.733 291.002 224.537 C 291.002 221.342 289.49 218.752 287.627 218.752 Z M 299.102 217.078 C 298.363 217.343 297.596 217.491 296.81 217.586 C 297.058 219.158 297.97 220.351 299.102 220.556 L 299.102 217.078 Z M 299.102 231.309 C 297.798 231.543 296.787 233.097 296.747 235.018 C 297.572 234.886 298.354 234.641 299.102 234.255 L 299.102 231.309 Z" style="stroke-width: 6px; paint-order: fill markers; fill: rgb(0, 101, 252);"/>
</svg>