<?xml version="1.0" encoding="utf-8"?>
<svg aria-hidden="true" focusable="false" data-prefix="fas" data-icon="search" class="svg-inline--fa fa-search fa-w-16" role="img" viewBox="0 0 30.231 34.461" xmlns="http://www.w3.org/2000/svg">
  <path d="M 27.674 25.75 L 23 21.077 C 22.789 20.866 22.503 20.748 22.203 20.748 L 21.439 20.748 C 22.733 19.094 23.501 17.013 23.501 14.749 C 23.501 9.364 19.137 5 13.751 5 C 8.364 5 4 9.364 4 14.749 C 4 20.134 8.364 24.498 13.751 24.498 C 16.015 24.498 18.096 23.729 19.751 22.436 L 19.751 23.2 C 19.751 23.5 19.868 23.786 20.079 23.997 L 24.753 28.67 C 25.194 29.11 25.906 29.11 26.342 28.67 L 27.669 27.343 C 28.11 26.903 28.11 26.19 27.674 25.75 Z M 13.751 20.748 C 10.436 20.748 7.75 18.067 7.75 14.749 C 7.75 11.435 10.432 8.75 13.751 8.75 C 17.065 8.75 19.751 11.431 19.751 14.749 C 19.751 18.063 17.07 20.748 13.751 20.748 Z" style="fill: rgb(255, 255, 255);"/>
</svg>