<?xml version="1.0" encoding="utf-8"?>
<svg aria-hidden="true" focusable="false" data-prefix="fas" data-icon="money-bill-wave" class="svg-inline--fa fa-money-bill-wave fa-w-20" role="img" viewBox="249.412 189.677 77.533 71.053" xmlns="http://www.w3.org/2000/svg">
  <circle style="paint-order: fill; fill: rgb(222, 235, 255); fill-rule: evenodd;" cx="286.646" cy="224.26" r="24.24" transform="matrix(1.362248, 0, 0, 1.340385, -102.692818, -75.331032)"/>
  <text style="font-size: 36; font-family: Roboto; white-space: pre;" transform="matrix(0.026552, 0, 0, 0.639763, -261.973328, -5.629234)">.money
{
    width: 35px;
    height: 35px;
    margin-top: -0.25em;
}</text>
  <path d="M 282.537 214.797 C 282.537 212.7 284.803 211 287.599 211 C 290.395 211 292.662 212.7 292.662 214.797 C 292.662 216.894 290.395 218.594 287.599 218.594 C 284.803 218.594 282.537 216.894 282.537 214.797 Z M 300.44 214.869 C 299.562 214.21 298.137 214.21 297.259 214.869 L 291.168 219.438 L 284.031 219.438 L 277.94 214.869 C 277.062 214.21 275.637 214.21 274.759 214.869 C 273.88 215.528 273.88 216.597 274.759 217.256 L 281.412 222.246 L 281.412 236.313 C 281.412 237.244 282.419 238 283.662 238 L 284.787 238 C 286.03 238 287.037 237.244 287.037 236.313 L 287.037 230.406 L 288.162 230.406 L 288.162 236.313 C 288.162 237.244 289.169 238 290.412 238 L 291.537 238 C 292.78 238 293.787 237.244 293.787 236.313 L 293.787 222.246 L 300.44 217.256 C 301.319 216.597 301.319 215.528 300.44 214.869 Z" style="fill: rgb(0, 101, 252);"/>
</svg>