<?xml version="1.0" encoding="utf-8"?>
<svg aria-hidden="true" focusable="false" data-prefix="fas" data-icon="money-bill-wave" class="svg-inline--fa fa-money-bill-wave fa-w-20" role="img" viewBox="264.862 213.526 29.697 29.783" xmlns="http://www.w3.org/2000/svg">
  <text style="font-size: 36; font-family: Roboto; white-space: pre;" transform="matrix(0.026552, 0, 0, 0.639763, -261.973328, -5.629234)">.money
{
    width: 35px;
    height: 35px;
    margin-top: -0.25em;
}</text>
  <circle style="stroke: rgb(242, 242, 242); fill: rgb(255, 255, 255);" cx="285.393" cy="222.916" r="18.343" transform="matrix(0.709855, 0, 0, 0.690057, 77.483185, 74.776459)"/>
  <path d="M 277.98 232.495 L 278.501 232.495 L 278.501 228.264 L 277.98 228.264 C 277.693 228.264 277.459 228.001 277.459 227.677 L 277.459 226.278 C 277.459 225.955 277.693 225.692 277.98 225.692 L 280.897 225.692 C 281.185 225.692 281.418 225.955 281.418 226.278 L 281.418 232.495 L 281.939 232.495 C 282.226 232.495 282.459 232.758 282.459 233.082 L 282.459 234.481 C 282.459 234.805 282.226 235.067 281.939 235.067 L 277.98 235.067 C 277.693 235.067 277.459 234.805 277.459 234.481 L 277.459 233.082 C 277.459 232.758 277.693 232.495 277.98 232.495 Z M 279.959 220.067 C 278.924 220.067 278.084 221.011 278.084 222.177 C 278.084 223.342 278.924 224.286 279.959 224.286 C 280.995 224.286 281.834 223.342 281.834 222.177 C 281.834 221.011 280.995 220.067 279.959 220.067 Z" style="fill: rgb(0, 101, 252);"/>
</svg>