<?xml version="1.0" encoding="utf-8"?>
<svg aria-hidden="true" focusable="false" data-prefix="fas" data-icon="map-marker-alt" class="svg-inline--fa fa-map-marker-alt fa-w-12" role="img" viewBox="83.303 238.738 60.626 55.595" xmlns="http://www.w3.org/2000/svg" xmlns:bx="https://boxy-svg.com">
  <path style="fill: rgb(242, 242, 242);" d="M 104.818 238.856 H 143.972 V 293.856 H 104.818 A 20.846 20.846 0 0 1 83.972 273.01 V 259.702 A 20.846 20.846 0 0 1 104.818 238.856 Z" bx:shape="rect 83.972 238.856 60 55 20.846 0 0 20.846 1@d1b5c2d5"/>
  <path d="M 114.281 281.681 C 105.956 268.105 104.412 266.713 104.412 261.723 C 104.412 254.888 109.337 249.348 115.412 249.348 C 121.485 249.348 126.412 254.888 126.412 261.723 C 126.412 266.713 124.868 268.105 116.543 281.681 C 115.994 282.57 114.828 282.57 114.281 281.681 Z M 115.412 266.88 C 117.943 266.88 119.994 264.571 119.994 261.723 C 119.994 258.875 117.943 256.565 115.412 256.565 C 112.879 256.565 110.829 258.875 110.829 261.723 C 110.829 264.571 112.879 266.88 115.412 266.88 Z" style=""/>
</svg>